<?xml version="1.0" encoding="UTF-8"?>
<svg width="36px" height="38px" viewBox="0 0 36 38" version="1.1" xmlns="http://www.w3.org/2000/svg"
     xmlns:xlink="http://www.w3.org/1999/xlink">
    <!-- Generator: Sketch 42 (36781) - http://www.bohemiancoding.com/sketch -->
    <title>sprite-adv-1</title>
    <desc>Created with Sketch.</desc>
    <defs></defs>
    <g id="Symbols" stroke="none" stroke-width="1" fill="none" fill-rule="evenodd">
        <g id="sprite-adv-1" fill-rule="nonzero" fill="#E7D3B7">
            <g id="Group">
                <path d="M18,32.943625 C19.0932,32.943625 20.16,32.834375 21.1968,32.644375 L28.1244,38 L28.1244,29.70175 C32.316,26.7009375 35.046,21.9010625 35.046,16.4718125 C35.046,7.374375 27.414,0 18,0 C8.586,0 0.954,7.374375 0.954,16.4718125 C0.954,25.56925 8.586,32.943625 18,32.943625 Z M18,2.375 C26.076,2.375 32.646,8.6984375 32.646,16.4718125 C32.646,20.959375 30.4848,25.08 26.718,27.7768125 L25.7244,28.488125 L25.7244,29.70175 L25.7244,33.13125 L22.674,30.772875 L21.822,30.1138125 L20.7588,30.3085625 C19.8204,30.48075 18.8916,30.568625 18,30.568625 C9.924,30.568625 3.354,24.2451875 3.354,16.4718125 C3.354,8.6984375 9.924,2.375 18,2.375 Z"
                      id="Shape"></path>
                <polygon id="Shape"
                         points="25.8624 11.0093125 23.8908 9.6555625 16.4748 20.2243125 11.7696 16.423125 10.2504 18.2625625 16.9668 23.6870625"></polygon>
            </g>
        </g>
    </g>
</svg>