<?xml version="1.0" encoding="UTF-8"?>
<svg width="58px" height="48px" viewBox="0 0 58 48" version="1.1" xmlns="http://www.w3.org/2000/svg" xmlns:xlink="http://www.w3.org/1999/xlink">
    <!-- Generator: Sketch 41.2 (35397) - http://www.bohemiancoding.com/sketch -->
    <title>Group</title>
    <desc>Created with Sketch.</desc>
    <defs></defs>
    <g id="Symbols" stroke="none" stroke-width="1" fill="none" fill-rule="evenodd">
        <g id="icon" transform="translate(1.000000, 1.000000)" fill="#E7D3B7">
            <g id="Group">
                <path d="M12.1704,24.9684828 C10.5112,24.9684828 9.1608,26.3072414 9.1608,27.9505517 C9.1608,29.5954483 10.5112,30.9357931 12.1704,30.9357931 C13.8296,30.9357931 15.18,29.5962414 15.18,27.9505517 C15.18,26.3072414 13.8296,24.9684828 12.1704,24.9684828 Z" id="Shape"></path>
                <path d="M26.8392,0.385448276 C25.7344,0.385448276 24.8392,1.27293103 24.8392,2.3682069 L24.8392,5.98237931 C15.5624,6.19889655 9.1832,9.43555172 6.1576,15.4266552 L2.4904,15.4266552 C1.3856,15.4266552 0.4904,16.3141379 0.4904,17.4094138 C0.4904,18.5046897 1.3856,19.3921724 2.4904,19.3921724 L3.6168,19.3921724 C1.7968,21.4938966 0.7464,24.2451724 0.7464,27.1804483 C0.7464,30.176 1.8264,32.9193448 3.6056,34.983 C3.5896,35.0837241 3.5744,35.1828621 3.5744,35.2883448 L3.5744,40.1849655 C3.5744,43.0552069 5.9304,45.3908966 8.8256,45.3908966 L11.4768,45.3908966 C14.372,45.3908966 16.7272,43.0552069 16.7272,40.1849655 L16.7272,38.7193103 L24.8384,38.7193103 L24.8384,43.661931 C24.8384,44.7572069 25.7336,45.6446897 26.8384,45.6446897 C27.9432,45.6446897 28.8384,44.7572069 28.8384,43.661931 L28.8384,2.3682069 C28.8392,1.27293103 27.944,0.385448276 26.8392,0.385448276 Z M24.8392,9.94631034 L24.8392,17.1310345 L9.7816,17.1310345 C12.1624,12.550069 17.2144,10.1398276 24.8392,9.94631034 Z M12.728,40.1849655 C12.728,40.8694138 12.1672,41.4253793 11.4776,41.4253793 L8.8264,41.4253793 C8.136,41.4253793 7.5752,40.8694138 7.5752,40.1849655 L7.5752,37.8952759 C8.4488,38.2656552 9.38,38.5242069 10.3552,38.6415862 C10.7832,38.6923448 11.188,38.7193103 11.588,38.7193103 L12.7288,38.7193103 L12.7288,40.1849655 L12.728,40.1849655 Z M11.5872,34.7537931 C11.336,34.7537931 11.0872,34.7355517 10.84,34.7038276 C7.3664,34.2858621 4.7464,31.0515862 4.7464,27.1804483 C4.7464,24.7511724 5.792,22.5257241 7.5528,21.0957586 L24.8384,21.0957586 L24.8384,34.7537931 L11.5872,34.7537931 Z" id="Shape" stroke="#3C3B3B" stroke-width="2"></path>
                <path d="M51.8752,13.4256552 L49.928,15.4242759 C47.912,13.7698621 45.372,12.8205172 42.6792,12.8205172 C36.3992,12.8205172 31.2904,17.886069 31.2904,24.1127241 C31.2904,30.3393793 36.4,35.404931 42.68,35.404931 C48.9616,35.404931 54.0704,30.3393793 54.0704,24.1127241 L50.0704,24.1127241 C50.0704,28.1527931 46.7544,31.4394138 42.68,31.4394138 C38.6056,31.4394138 35.2912,28.152 35.2912,24.1127241 C35.2912,20.071069 38.6056,16.7860345 42.68,16.7860345 C44.3208,16.7860345 45.8768,17.3301034 47.144,18.2857931 L42.6896,22.8604138 L41.6552,21.7865517 C40.8944,20.9934483 39.6288,20.9641034 38.8272,21.719931 C38.0288,22.4741724 37.9976,23.7288621 38.76,24.5219655 L42.6712,28.5897931 L54.7544,16.1793103 C55.5216,15.3925517 55.4984,14.1378621 54.704,13.3756897 C53.908,12.6151034 52.6424,12.6357241 51.8752,13.4256552 Z" id="Shape" stroke="#3C3B3B" stroke-width="2"></path>
            </g>
        </g>
    </g>
</svg>