<?xml version="1.0" encoding="UTF-8"?>
<svg width="51px" height="40px" viewBox="0 0 51 40" version="1.1" xmlns="http://www.w3.org/2000/svg"
     xmlns:xlink="http://www.w3.org/1999/xlink">
    <!-- Generator: Sketch 42 (36781) - http://www.bohemiancoding.com/sketch -->
    <title>sprite-adv-5</title>
    <desc>Created with Sketch.</desc>
    <defs></defs>
    <g id="Symbols" stroke="none" stroke-width="1" fill="none" fill-rule="evenodd">
        <g id="sprite-adv-5" fill-rule="nonzero" fill="#E7D3B7">
            <g id="Group">
                <path d="M9.74554455,4 C7.72574257,4 6.05940594,5.6 6.05940594,7.6 C6.05940594,9.6 7.72574257,11.2 9.74554455,11.2 C11.0079208,11.2 12.1693069,10.55 12.8257426,9.6 L9.74554455,9.6 C8.63465347,9.6 7.72574257,8.7 7.72574257,7.6 C7.72574257,6.5 8.63465347,5.6 9.74554455,5.6 L12.8257426,5.6 C12.1188119,4.65 11.0079208,4 9.74554455,4 Z"
                      id="Shape"></path>
                <path d="M31.0039604,11.3 C33.0742574,11.3 34.7910891,9.65 34.7910891,7.6 C34.7910891,5.55 33.1247525,3.9 31.0039604,3.9 C29.6910891,3.9 28.529703,4.6 27.8227723,5.6 L31.0039604,5.6 C32.1148515,5.6 33.0237624,6.5 33.0237624,7.6 C33.0237624,8.7 32.1148515,9.6 31.0039604,9.6 L27.8227723,9.6 C28.529703,10.65 29.6910891,11.3 31.0039604,11.3 Z"
                      id="Shape"></path>
                <path d="M12.7247525,16.55 C12.3207921,16.7 12.1188119,17.05 12.1188119,17.5 L12.1188119,35.4 L9.74554455,37.55 L7.37227723,35.4 L7.37227723,17.5 C7.37227723,17.4 7.37227723,17.3 7.32178218,17.2 C7.32178218,17.1 7.27128713,17.05 7.22079208,17 C7.11980198,16.85 7.01881188,16.7 6.86732673,16.65 C6.81683168,16.6 6.76633663,16.6 6.71584158,16.55 C3.83762376,15.35 2.01980198,12.65 2.01980198,9.6 C2.01980198,5.45 5.45346535,2.1 9.74554455,2.1 C12.4722772,2.1 14.8960396,3.5 16.2594059,5.6 L18.5821782,5.6 C17.0168317,2.35 13.6841584,0.1 9.74554455,0.1 C4.39306931,0.1 0,4.35 0,9.6 C0,13.25 2.07029703,16.5 5.35247525,18.1 L5.35247525,35.8 C5.35247525,36.1 5.45346535,36.35 5.65544554,36.55 L9.03861386,39.65 C9.24059406,39.85 9.49306931,39.9 9.74554455,39.9 C9.9980198,39.9 10.250495,39.8 10.4524752,39.65 L13.8356436,36.55 C14.0376238,36.35 14.1386139,36.1 14.1386139,35.8 L14.1386139,18.15 C17.4207921,16.55 19.4910891,13.25 19.4910891,9.65 L17.4712871,9.65 C17.4207921,12.65 15.6029703,15.35 12.7247525,16.55 Z"
                      id="Shape"></path>
                <path d="M45.4960396,5.65 L44.6376238,5.35 C43.5772277,5 42.6683168,4.35 42.0118812,3.4 L41.809901,3.1 C40.4465347,1.2 38.1742574,0.05 35.8009901,0.05 L28.0752475,0.05 C25.9544554,0.05 23.9346535,0.95 22.5207921,2.55 C21.7633663,3.45 21.2079208,4.5 20.9049505,5.6 L23.0257426,5.6 C23.2277228,4.95 23.5811881,4.4 24.0356436,3.9 C25.0455446,2.75 26.509901,2.1 28.0752475,2.1 L35.8009901,2.1 C37.5178218,2.1 39.1336634,2.9 40.1435644,4.3 L40.3455446,4.6 C41.2544554,5.85 42.5168317,6.75 43.9811881,7.25 L44.839604,7.55 C47.0108911,8.25 48.4752475,10.25 48.4752475,12.55 C48.4752475,12.95 48.1217822,13.3 47.6673267,13.3 L46.7079208,13.3 C46.1524752,13.3 45.6980198,13.75 45.6980198,14.3 C45.6980198,15.75 44.4861386,16.9 43.0217822,16.9 C41.5574257,16.9 40.3455446,15.7 40.3455446,14.3 C40.3455446,13.75 39.8910891,13.3 39.3356436,13.3 L31.8623762,13.3 C31.3069307,13.3 30.8524752,13.75 30.8524752,14.3 C30.8524752,15.75 29.6405941,16.9 28.1762376,16.9 C27.0148515,16.9 25.9544554,16.15 25.6009901,15 C25.2980198,14 24.3386139,13.25 23.2277228,13.25 C22.9752475,13.25 22.7227723,13.05 22.7227723,12.8 L22.7227723,9.6 L20.7029703,9.6 L20.7029703,12.8 C20.7029703,14.15 21.8138614,15.25 23.2277228,15.25 C23.429703,15.25 23.6316832,15.4 23.6821782,15.55 C24.2881188,17.5 26.1059406,18.85 28.1762376,18.85 C30.3980198,18.85 32.2663366,17.3 32.7712871,15.25 L38.4772277,15.25 C38.9316832,17.3 40.8,18.85 43.0722772,18.85 C45.3445545,18.85 47.1623762,17.3 47.6673267,15.25 L47.7178218,15.25 C49.2831683,15.25 50.5455446,14 50.5455446,12.5 C50.4950495,9.4 48.4752475,6.65 45.4960396,5.65 Z"
                      id="Shape"></path>
                <path d="M31.0039604,8.65 L9.74554455,8.65 C9.19009901,8.65 8.73564356,8.2 8.73564356,7.65 C8.73564356,7.1 9.19009901,6.65 9.74554455,6.65 L31.0039604,6.65 C31.5594059,6.65 32.0138614,7.1 32.0138614,7.65 C32.0138614,8.2 31.5594059,8.65 31.0039604,8.65 Z"
                      id="Shape"></path>
            </g>
        </g>
    </g>
</svg>