<?xml version="1.0" encoding="UTF-8"?>
<svg width="40px" height="40px" viewBox="0 0 40 40" version="1.1" xmlns="http://www.w3.org/2000/svg"
     xmlns:xlink="http://www.w3.org/1999/xlink">
    <!-- Generator: Sketch 42 (36781) - http://www.bohemiancoding.com/sketch -->
    <title>sprite-adv-3</title>
    <desc>Created with Sketch.</desc>
    <defs></defs>
    <g id="Symbols" stroke="none" stroke-width="1" fill="none" fill-rule="evenodd">
        <g id="sprite-adv-3" fill-rule="nonzero" fill="#E7D3B7">
            <g id="Group">
                <path d="M19.8930233,1.95858824 C29.7367442,1.95858824 37.7437209,10.0607059 37.7437209,20.0192941 C37.7437209,29.9774118 29.735814,38.0790588 19.8930233,38.0790588 C16.12,38.0790588 12.5097674,36.8978824 9.45348837,34.6625882 C9.13116279,34.4272941 8.74883721,34.3058824 8.36372093,34.3058824 C8.1055814,34.3058824 7.84697674,34.36 7.60418605,34.4705882 L3.3655814,36.3896471 L5.15627907,31.6305882 C5.36883721,31.0654118 5.30093023,30.4310588 4.97209302,29.9265882 C3.05627907,26.9788235 2.04372093,23.5524706 2.04372093,20.0192941 C2.04325581,10.0602353 10.0502326,1.95858824 19.8930233,1.95858824 L19.8930233,1.95858824 Z M19.8930233,0.0762352941 C9.00744186,0.0762352941 0.182790698,9.00564706 0.182790698,20.0192941 C0.182790698,24.0597647 1.3744186,27.8183529 3.4172093,30.9604706 L0.0302325581,39.9614118 L8.36325581,36.1882353 C11.6055814,38.5595294 15.5865116,39.9614118 19.8925581,39.9614118 C30.7781395,39.9614118 39.6037209,31.032 39.6037209,20.0192941 C39.6037209,9.00517647 30.7786047,0.0762352941 19.8930233,0.0762352941 L19.8930233,0.0762352941 Z"
                      id="Shape"></path>
                <path d="M28.6832558,27.3195294 L25.2734884,23.8691765 C26.3437209,22.4395294 26.9283721,20.6884706 26.9283721,18.8922353 C26.9283721,14.3364706 23.2655814,10.6301176 18.7627907,10.6301176 C15.372093,10.6301176 10.5972093,13.1934118 10.5972093,18.8922353 C10.5972093,23.448 14.26,27.1538824 18.7627907,27.1538824 C20.4767442,27.1538824 22.1595349,26.5981176 23.5465116,25.5821176 L26.9734884,29.0489412 C27.2018605,29.28 27.5055814,29.4075294 27.8283721,29.4075294 C28.1511628,29.4075294 28.4548837,29.28 28.6832558,29.0494118 C28.9116279,28.8183529 29.0376744,28.5110588 29.0376744,28.1844706 C29.0376744,27.8569412 28.9116279,27.5501176 28.6832558,27.3195294 Z M18.7627907,25.3091765 C15.2651163,25.3091765 12.42,22.4305882 12.42,18.8917647 C12.42,14.4654118 16.1293023,12.4743529 18.7627907,12.4743529 C22.2604651,12.4743529 25.1055814,15.3529412 25.1055814,18.8917647 C25.1055814,22.4305882 22.26,25.3091765 18.7627907,25.3091765 Z"
                      id="Shape"></path>
            </g>
        </g>
    </g>
</svg>