<?xml version="1.0" encoding="UTF-8"?>
<svg width="50px" height="50px" viewBox="0 0 50 50" version="1.1" xmlns="http://www.w3.org/2000/svg"
     xmlns:xlink="http://www.w3.org/1999/xlink">
    <!-- Generator: Sketch 42 (36781) - http://www.bohemiancoding.com/sketch -->
    <title>sprite-adv-2</title>
    <desc>Created with Sketch.</desc>
    <defs></defs>
    <g id="Symbols" stroke="none" stroke-width="1" fill="none" fill-rule="evenodd">
        <g id="sprite-adv-2" fill-rule="nonzero" fill="#E7D3B7">
            <g id="Group">
                <path d="M48.7916667,18.6363636 L19.1666667,18.6363636 C18.7083333,18.6363636 18.3333333,19.0082645 18.3333333,19.4628099 L18.3333333,20.5785124 L1.20833333,20.5785124 C0.875,20.5785124 0.541666667,20.785124 0.416666667,21.1157025 C0.291666667,21.446281 0.416666667,21.8181818 0.666666667,22.0247934 L2.66666667,23.6363636 C5,25.5785124 7.625,27.0247934 10.4166667,28.0165289 C13.2083333,29.0082645 16.125,29.5041322 19.0833333,29.5041322 C21.1666667,29.7520661 22.75,31.5702479 22.75,33.677686 L22.75,34.9173554 C22.75,36.5289256 21.9583333,38.0165289 20.625,38.9256198 L12.5,44.4628099 L12.5,44.4628099 L12.5,44.4628099 C12.5,44.4628099 12.5,44.4628099 12.4583333,44.5041322 C12.4166667,44.5454545 12.375,44.5454545 12.375,44.5867769 L12.3333333,44.6280992 C12.3333333,44.6694215 12.2916667,44.6694215 12.2916667,44.7107438 C12.2916667,44.7520661 12.25,44.7520661 12.25,44.7933884 C12.25,44.8347107 12.2083333,44.8347107 12.2083333,44.8760331 C12.2083333,44.9173554 12.2083333,44.9173554 12.1666667,44.9586777 C12.1666667,45 12.1666667,45 12.125,45.0413223 L12.125,45.1652893 L12.125,45.2066116 L12.125,45.2066116 L12.125,45.2066116 L12.125,48.8016529 C12.125,49.2561983 12.5,49.6280992 12.9583333,49.6280992 L46.8333333,49.6280992 C47.2916667,49.6280992 47.6666667,49.2561983 47.6666667,48.8016529 L47.6666667,45.2066116 C47.6666667,44.9173554 47.5416667,44.6694215 47.2916667,44.5041322 L39.1666667,38.9669421 C37.8333333,38.0578512 37.0416667,36.5702479 37.0416667,34.9586777 C37.0416667,30.2066116 40.0833333,26.0330579 44.625,24.6280992 L49.0416667,23.2644628 C49.375,23.1404959 49.625,22.8512397 49.625,22.4793388 L49.625,19.4628099 C49.625,19.0082645 49.25,18.6363636 48.7916667,18.6363636 Z M47.9583333,21.8595041 L44.125,23.0578512 C38.875,24.6694215 35.375,29.4628099 35.375,34.9586777 C35.375,37.107438 36.4583333,39.0909091 38.2083333,40.3305785 L46,45.6198347 L46,47.9752066 L13.7916667,47.9752066 L13.7916667,46.0330579 L38.625,46.0330579 C39.0833333,46.0330579 39.4583333,45.661157 39.4583333,45.2066116 C39.4583333,44.7520661 39.0833333,44.3801653 38.625,44.3801653 L15.6666667,44.3801653 L21.5833333,40.3719008 C23.375,39.1735537 24.4166667,37.1487603 24.4166667,35 L24.4166667,33.7603306 C24.4166667,30.785124 22.2083333,28.2644628 19.25,27.9338843 L19.1666667,27.9338843 L19.1666667,27.9338843 C16.375,27.9338843 13.625,27.4793388 11,26.5289256 C8.375,25.5785124 5.91666667,24.214876 3.75,22.4380165 L3.54166667,22.2727273 L18.3333333,22.2727273 L18.3333333,24.6694215 C18.3333333,25.1239669 18.7083333,25.4958678 19.1666667,25.4958678 C19.625,25.4958678 20,25.1239669 20,24.6694215 L20,20.2892562 L47.9583333,20.2892562 L47.9583333,21.8595041 Z"
                      id="Shape"></path>
                <path d="M20.4583333,16.3636364 L26.875,16.3636364 C28.0416667,16.3636364 29,15.4132231 29,14.2561983 L29,9.00826446 L48.8333333,9.00826446 C49.2916667,9.00826446 49.6666667,8.63636364 49.6666667,8.18181818 C49.6666667,7.72727273 49.2916667,7.3553719 48.8333333,7.3553719 L28.9583333,7.3553719 L28.9583333,2.10743802 C28.9583333,0.950413223 28,0 26.8333333,0 L20.4583333,0 C19.2916667,0 18.3333333,0.950413223 18.3333333,2.10743802 L18.3333333,14.2975207 C18.3333333,15.4132231 19.2916667,16.3636364 20.4583333,16.3636364 Z M20,2.10743802 C20,1.85950413 20.2083333,1.65289256 20.4583333,1.65289256 L26.875,1.65289256 C27.125,1.65289256 27.3333333,1.85950413 27.3333333,2.10743802 L27.3333333,14.2975207 C27.3333333,14.5454545 27.125,14.7520661 26.875,14.7520661 L20.4583333,14.7520661 C20.2083333,14.7520661 20,14.5454545 20,14.2975207 L20,2.10743802 L20,2.10743802 Z"
                      id="Shape"></path>
            </g>
        </g>
    </g>
</svg>