<svg viewBox="0 0 32 30" xmlns="http://www.w3.org/2000/svg"><path d="m16.3.18 4.61 9.35a.31.31 0 0 0 .25.18l10.31 1.5a.34.34 0 0 1 .29.37.31.31 0 0 1 -.11.19l-7.41 7.28a.31.31 0 0 0 -.1.29l1.77 10.27a.32.32 0 0 1 -.27.38.23.23 0 0 1 -.2 0l-9.23-4.85a.34.34 0 0 0 -.31 0l-9.28 4.86a.32.32 0 0 1 -.44-.13.26.26 0 0 1 0-.21l1.73-10.32a.31.31 0 0 0 -.1-.29l-7.46-7.28a.32.32 0 0 1 0-.46.3.3 0 0 1 .2-.1l10.3-1.5a.37.37 0 0 0 .25-.18l4.61-9.35a.34.34 0 0 1 .44-.18.49.49 0 0 1 .15.18z" fill="none"/><path d="m16 3-3.57 7.22a1.84 1.84 0 0 1 -1.37 1l-8 1.16 5.8 5.62a1.87 1.87 0 0 1 .53 1.62l-1.39 7.91 7.11-3.74a1.86 1.86 0 0 1 .86-.22 1.79 1.79 0 0 1 .85.22l7.18 3.74-1.36-7.94a1.91 1.91 0 0 1 .5-1.59l5.77-5.62-8-1.16a1.81 1.81 0 0 1 -1.39-1zm0-3a.32.32 0 0 1 .29.18l4.61 9.35a.35.35 0 0 0 .25.18l10.31 1.5a.34.34 0 0 1 .28.38.32.32 0 0 1 -.1.18l-7.41 7.28a.38.38 0 0 0 -.1.29l1.77 10.27a.34.34 0 0 1 -.28.39.43.43 0 0 1 -.16 0l-9.26-4.85a.34.34 0 0 0 -.31 0l-9.27 4.85a.22.22 0 0 1 -.16 0 .32.32 0 0 1 -.32-.33v-.06l1.76-10.27a.27.27 0 0 0 -.1-.29l-7.46-7.28a.34.34 0 0 1 0-.47.34.34 0 0 1 .18-.09l10.32-1.5a.34.34 0 0 0 .25-.18l4.61-9.35a.35.35 0 0 1 .3-.18z" fill="#af443d"/></svg>