<svg xmlns="http://www.w3.org/2000/svg" width="15" height="15" viewBox="0 0 15 15">
  <metadata><?xpacket begin="﻿" id="W5M0MpCehiHzreSzNTczkc9d"?>
<x:xmpmeta xmlns:x="adobe:ns:meta/" x:xmptk="Adobe XMP Core 5.6-c138 79.159824, 2016/09/14-01:09:01        ">
   <rdf:RDF xmlns:rdf="http://www.w3.org/1999/02/22-rdf-syntax-ns#">
      <rdf:Description rdf:about=""/>
   </rdf:RDF>
</x:xmpmeta>
                                                                                                    
                                                                                                    
                                                                                                    
                                                                                                    
                                                                                                    
                                                                                                    
                                                                                                    
                                                                                                    
                                                                                                    
                                                                                                    
                                                                                                    
                                                                                                    
                                                                                                    
                                                                                                    
                                                                                                    
                                                                                                    
                                                                                                    
                                                                                                    
                                                                                                    
                                                                                                    
                           
<?xpacket end="w"?></metadata>
<defs>
    <style>
      .cls-1 {
        fill: #ad1222;
        fill-rule: evenodd;
      }
    </style>
  </defs>
  <path id="STAR" class="cls-1" d="M837.709,9196.5h0l-3.778,2.87,1.456,4.66a0.78,0.78,0,0,1,.035.23,0.722,0.722,0,0,1-.7.74,0.666,0.666,0,0,1-.412-0.14h0l-3.807-2.89-3.807,2.89h0a0.666,0.666,0,0,1-.412.14,0.722,0.722,0,0,1-.7-0.74,0.78,0.78,0,0,1,.035-0.23l1.456-4.66-3.778-2.87h0a0.757,0.757,0,0,1-.291-0.6,0.722,0.722,0,0,1,.7-0.74h4.676l1.449-4.64a0.694,0.694,0,0,1,1.344,0l1.448,4.64H837.3a0.722,0.722,0,0,1,.7.74A0.757,0.757,0,0,1,837.709,9196.5Z" transform="translate(-823 -9190)"/>
</svg>
