<?xml version="1.0" encoding="UTF-8"?>
<svg width="52px" height="52px" viewBox="0 0 52 52" version="1.1" xmlns="http://www.w3.org/2000/svg"
     xmlns:xlink="http://www.w3.org/1999/xlink">
    <!-- Generator: Sketch 42 (36781) - http://www.bohemiancoding.com/sketch -->
    <title>Shape</title>
    <desc>Created with Sketch.</desc>
    <defs></defs>
    <g id="Symbols" stroke="none" stroke-width="1" fill="none" fill-rule="evenodd">
        <g id="sprite-call" fill-rule="nonzero" fill="#D0011B">
            <path d="M31.8702078,40.8682951 L31.8702078,40.8682951 L27.0371801,37.1505814 C25.4969844,35.9821572 23.3194664,36.1414877 21.9386013,37.4692426 L19.9204139,39.48743 C18.3802183,39.1156587 16.946243,38.4252261 15.7247085,37.4161324 L15.5653779,37.2568018 C15.0873862,36.8850305 14.6625046,36.4070387 14.2376231,35.929047 L14.0782925,35.7697164 C13.0691988,34.5481819 12.325656,33.1142066 12.0069949,31.574011 L14.0251823,29.5558236 C15.4060474,28.1749585 15.5653779,25.9974405 14.3438435,24.4572448 L10.6261298,19.6242171 C9.45770551,18.1371316 7.49262829,17.6060297 5.73999185,18.3495724 L5.2088899,18.6151234 C2.12849859,19.9959884 0.0572009826,23.12949 0.00409078757,26.5285424 C-0.102129603,32.3175537 1.86294761,37.9472344 5.58066127,42.3553806 L5.84621224,42.6209315 C6.74908556,43.7362456 7.81128946,44.7453393 8.87349336,45.6482127 L9.13904434,45.9137636 C13.4409701,49.5252569 18.85821,51.4903341 24.4878907,51.4903341 L24.9658825,51.4903341 C28.364935,51.4372239 31.4453263,49.3659263 32.8261913,46.2324248 L33.0917423,45.7013229 C33.8883952,44.0017966 33.3572933,41.9836092 31.8702078,40.8682951 Z M30.7017835,44.639119 L30.4362326,45.1702209 C29.480249,47.3477389 27.3027311,48.7817142 24.9127723,48.8348244 C19.7610834,48.9410448 14.768725,47.1884083 10.8385706,43.842466 L10.5730196,43.5769151 C9.61703609,42.7271519 8.66105258,41.8242786 7.86439966,40.8682951 L7.65195888,40.6558543 C4.35912678,36.7256999 2.55338015,31.7333416 2.71271074,26.5816526 C2.76582093,24.1916939 4.1997962,22.0141759 6.3773142,21.0581923 L6.90841615,20.7926414 C7.06774673,20.686421 7.28018751,20.686421 7.49262829,20.686421 C7.91750985,20.686421 8.34239141,20.8988618 8.60794239,21.2706331 L12.325656,26.1036609 C12.6974274,26.5816526 12.6443172,27.2720852 12.2194357,27.6969667 L9.72325648,30.1931459 C9.40459531,30.5118071 9.29837492,30.9366886 9.35148512,31.3615702 C9.72325648,33.5921984 10.67924,35.7166062 12.1663255,37.4692426 L12.325656,37.6285732 C12.8036478,38.2127853 13.3878599,38.7438873 13.9720721,39.2749893 L14.1314027,39.4343198 C15.8840391,40.9214053 18.0084469,41.8773888 20.2390751,42.2491602 C20.6639567,42.3022704 21.0888382,42.19605 21.4074994,41.8773888 L23.9036786,39.3812096 C24.3285601,38.9563281 25.0189927,38.9032179 25.4969844,39.2749893 L30.3300122,42.9927029 C30.8080039,43.3644743 30.9673345,44.0549068 30.7017835,44.639119 Z M46.6879523,4.85958285 C40.2085085,-1.61986095 29.6926898,-1.61986095 23.213246,4.85958285 C17.9553367,10.1174922 16.8400226,18.1371316 20.3984057,24.5634652 L19.123761,29.0247216 C18.85821,29.9807051 19.123761,31.042909 19.8141935,31.7333416 C20.5046261,32.4237741 21.56683,32.6893251 22.5228135,32.4237741 L26.9840699,31.1491294 C29.480249,32.5299945 32.2419792,33.220427 34.9505991,33.220427 C39.2525249,33.220427 43.5013405,31.574011 46.6879523,28.3342891 C53.1142859,21.8548453 53.1142859,11.3390266 46.6879523,4.85958285 Z M44.7759852,26.4754322 C40.2616186,30.9897988 33.2510729,31.8395619 27.7807228,28.59984 C27.568282,28.4936197 27.3558412,28.3873993 27.0902903,28.3873993 C26.9840699,28.3873993 26.8247393,28.3873993 26.7185189,28.4405095 L21.7261606,29.8744847 L21.6199402,29.8744847 C21.56683,29.8213745 21.56683,29.8213745 21.6199402,29.7682643 L23.0539154,24.775906 C23.1601358,24.4041346 23.1070256,24.0323633 22.8945849,23.7137021 C19.6017528,18.243352 20.5046261,11.2328063 25.0189927,6.71843968 C30.4893428,1.35430997 39.3587453,1.35430997 44.7759852,6.77154987 C50.1932251,12.1887898 50.1932251,21.0581923 44.7759852,26.4754322 Z M36.278354,16.596936 C36.278354,17.3404787 35.6941419,17.9246908 34.9505991,17.9246908 C34.2070564,17.9246908 33.6228443,17.3404787 33.6228443,16.596936 C33.6228443,15.8533932 34.2070564,15.2691811 34.9505991,15.2691811 L34.9505991,15.2691811 C35.6941419,15.2691811 36.278354,15.9065034 36.278354,16.596936 Z M31.1266651,16.596936 C31.1266651,17.3404787 30.542453,17.9246908 29.7989102,17.9246908 C29.0553675,17.9246908 28.4711553,17.3404787 28.4711553,16.596936 C28.4711553,15.8533932 29.0553675,15.2691811 29.7989102,15.2691811 L29.7989102,15.2691811 C30.542453,15.2691811 31.1266651,15.9065034 31.1266651,16.596936 Z M41.3769327,16.596936 C41.3769327,17.3404787 40.7927206,17.9246908 40.0491779,17.9246908 C39.3056351,17.9246908 38.721423,17.3404787 38.721423,16.596936 C38.721423,15.8533932 39.3056351,15.2691811 40.0491779,15.2691811 L40.0491779,15.2691811 C40.7927206,15.2691811 41.3769327,15.9065034 41.3769327,16.596936 Z"
                  id="Shape"></path>
        </g>
    </g>
</svg>