<?xml version="1.0" encoding="UTF-8"?>
<svg width="48px" height="49px" viewBox="0 0 48 49" version="1.1" xmlns="http://www.w3.org/2000/svg"
     xmlns:xlink="http://www.w3.org/1999/xlink">
    <!-- Generator: Sketch 42 (36781) - http://www.bohemiancoding.com/sketch -->
    <title>sprite-delivery-4</title>
    <desc>Created with Sketch.</desc>
    <defs></defs>
    <g id="Symbols" stroke="none" stroke-width="1" fill="none" fill-rule="evenodd">
        <g id="sprite-delivery-4" fill-rule="nonzero" fill="#FFFFFF">
            <path d="M23.0246809,19.0334375 C23.0246809,15.9198958 17.3004255,14.5264583 11.627234,14.5264583 C5.95404255,14.5264583 0.229787234,15.9147917 0.229787234,19.0334375 L0.229787234,21.8101042 C0.229787234,24.9236458 5.95404255,26.3170833 11.627234,26.3170833 C17.3004255,26.3170833 23.0246809,24.9236458 23.0246809,21.8101042 L23.0246809,19.0334375 Z M20.4714894,21.7692708 C20.1753191,22.35625 17.1931915,23.765 11.627234,23.765 C6.0612766,23.765 3.06382979,22.35625 2.78297872,21.7692708 L2.78297872,19.0691667 C3.07914894,18.4821875 6.0612766,17.0734375 11.627234,17.0734375 C17.1931915,17.0734375 20.1753191,18.4821875 20.4714894,19.0691667 L20.4714894,21.7692708 Z M23.0246809,29.3336458 C23.0246809,32.4471875 17.3004255,33.840625 11.627234,33.840625 C5.95404255,33.840625 0.229787234,32.4471875 0.229787234,29.3336458 L0.229787234,27.0163542 C0.229787245,26.3116158 0.801338625,25.7403125 1.50638298,25.7403125 C2.21142733,25.7403125 2.78297871,26.3116158 2.78297872,27.0163542 L2.78297872,29.2928125 C3.06382979,29.8797917 6.05617021,31.2885417 11.627234,31.2885417 C17.1982979,31.2885417 20.1753191,29.8797917 20.4714894,29.2928125 L20.4714894,27.0163542 C20.4714894,26.3116158 21.0430407,25.7403125 21.7480851,25.7403125 C22.4531295,25.7403125 23.0246809,26.3116158 23.0246809,27.0163542 L23.0246809,29.3336458 Z M23.0246809,36.8571875 C23.0246809,39.9707292 17.3004255,41.3641667 11.627234,41.3641667 C5.95404255,41.3641667 0.229787234,39.9707292 0.229787234,36.8520833 L0.229787234,34.5398958 C0.229787245,33.8351575 0.801338625,33.2638542 1.50638298,33.2638542 C2.21142733,33.2638542 2.78297871,33.8351575 2.78297872,34.5398958 L2.78297872,36.8163542 C3.06382979,37.3982292 6.05617021,38.7916667 11.627234,38.7916667 C17.1982979,38.7916667 20.1753191,37.3829167 20.4714894,36.7959375 L20.4714894,34.5398958 C20.4714894,33.8351575 21.0430407,33.2638542 21.7480851,33.2638542 C22.4531295,33.2638542 23.0246809,33.8351575 23.0246809,34.5398958 L23.0246809,36.8571875 Z M47.7702128,26.5416667 C47.7702128,23.428125 42.0459574,22.0346875 36.372766,22.0346875 C30.6995745,22.0346875 24.9753191,23.4383333 24.9753191,26.5416667 L24.9753191,29.3183333 C24.9753191,32.431875 30.6995745,33.8253125 36.372766,33.8253125 C42.0459574,33.8253125 47.7702128,32.431875 47.7702128,29.3183333 L47.7702128,26.5416667 Z M45.2170213,29.2775 C44.9361702,29.8797917 41.9438298,31.2885417 36.372766,31.2885417 C30.8017021,31.2885417 27.8246809,29.8797917 27.5285106,29.2928125 L27.5285106,26.5927083 C27.8246809,26.0057292 30.8068085,24.5969792 36.372766,24.5969792 C41.9387234,24.5969792 44.9361702,26.03125 45.2170213,26.5927083 L45.2170213,29.2775 Z M47.7702128,36.841875 C47.7702128,39.9554167 42.0459574,41.3488542 36.372766,41.3488542 C30.6995745,41.3488542 24.9753191,39.9707292 24.9753191,36.8520833 L24.9753191,34.5398958 C24.9753191,33.8351575 25.5468705,33.2638542 26.2519149,33.2638542 C26.9569593,33.2638542 27.5285106,33.8351575 27.5285106,34.5398958 L27.5285106,36.8163542 C27.8246809,37.3982292 30.8068085,38.7916667 36.372766,38.7916667 C41.9387234,38.7916667 44.9361702,37.3982292 45.2170213,36.8163542 L45.2170213,34.5398958 C45.2170213,33.8351575 45.7885727,33.2638542 46.493617,33.2638542 C47.1986614,33.2638542 47.7702128,33.8351575 47.7702128,34.5398958 L47.7702128,36.841875 Z M27.5285106,42.0583333 L27.5285106,44.3347917 C27.8246809,44.9217708 30.8068085,46.3305208 36.372766,46.3305208 C41.9387234,46.3305208 44.9361702,44.9166667 45.2170213,44.3347917 L45.2170213,42.0583333 C45.2170213,41.353595 45.7885727,40.7822917 46.493617,40.7822917 C47.1986614,40.7822917 47.7702128,41.353595 47.7702128,42.0583333 L47.7702128,44.375625 C47.7702128,47.4891667 42.0459574,48.8826042 36.372766,48.8826042 C30.6995745,48.8826042 24.9753191,47.46875 24.9753191,44.375625 L24.9753191,42.0583333 C24.9753191,41.353595 25.5468705,40.7822917 26.2519149,40.7822917 C26.9569593,40.7822917 27.5285106,41.353595 27.5285106,42.0583333 Z M11.627234,48.8826042 C5.95404255,48.8826042 0.229787234,47.46875 0.229787234,44.375625 L0.229787234,42.0583333 C0.229787245,41.353595 0.801338625,40.7822917 1.50638298,40.7822917 C2.21142733,40.7822917 2.78297871,41.353595 2.78297872,42.0583333 L2.78297872,44.3347917 C3.06382979,44.9166667 6.05617021,46.3305208 11.627234,46.3305208 C17.1982979,46.3305208 20.1753191,44.9166667 20.4714894,44.3347917 L20.4714894,42.0583333 C20.4714894,41.353595 21.0430407,40.7822917 21.7480851,40.7822917 C22.4531295,40.7822917 23.0246809,41.353595 23.0246809,42.0583333 L23.0246809,44.375625 C23.0246809,47.46875 17.3004255,48.8826042 11.627234,48.8826042 Z M44.0680851,9.7540625 C44.5107446,8.8209584 44.3669945,7.71536117 43.7004255,6.92635417 L43.7004255,6.92635417 L39.0382979,1.35770833 C38.3788044,0.567628943 37.4021825,0.111321816 36.372766,0.112291667 L36.372766,0.112291667 C35.3415639,0.109804202 34.3627641,0.566254469 33.7021277,1.35770833 L29.04,6.92125 C28.3810215,7.713834 28.2395102,8.81563604 28.6768269,9.74890193 C29.1141435,10.6821678 30.0515412,11.2788454 31.0825532,11.2802083 L31.8638298,11.2802083 L31.6595745,17.5685417 C31.6274896,18.3137814 31.9017942,19.0397028 32.418759,19.5776527 C32.9357237,20.1156026 33.6503453,20.4187507 34.3965957,20.4166667 L38.3540426,20.4166667 C39.0948015,20.4170859 39.8039757,20.1168075 40.3190353,19.5846499 C40.8340948,19.0524923 41.1108803,18.3340809 41.0859574,17.5940625 L40.8765957,11.3108333 L41.6578723,11.3108333 C42.6983069,11.3130745 43.6426375,10.7031258 44.0680851,9.7540625 Z M39.5591489,8.73322917 C39.2151252,8.73713221 38.8872412,8.8796684 38.6498002,9.12853691 C38.4123592,9.37740542 38.2854645,9.71153552 38.2978723,10.0552083 L38.5480851,17.6553125 C38.5494643,17.7049243 38.5307072,17.7529839 38.4960818,17.7885557 C38.4614564,17.8241274 38.4139078,17.8441858 38.3642553,17.8441667 L34.3965957,17.8441667 C34.3469433,17.8441858 34.2993946,17.8241274 34.2647692,17.7885557 C34.2301438,17.7529839 34.2113867,17.7049243 34.212766,17.6553125 L34.4629787,10.0552083 C34.4754296,9.70977812 34.3471523,9.37407661 34.1074914,9.12489905 C33.8678306,8.87572148 33.5372919,8.73438766 33.1914894,8.73322917 L31.0876596,8.73322917 C31.0449292,8.73708214 31.0043454,8.71382888 30.986077,8.67502545 C30.9678087,8.63622203 30.9757512,8.59014277 31.0059574,8.5596875 L35.6680851,2.99614583 C35.8423976,2.78406401 36.1032862,2.66211868 36.3778723,2.664375 L36.3778723,2.664375 C36.6524584,2.66211868 36.9133471,2.78406401 37.0876596,2.99614583 L41.7497872,8.5596875 C41.7799935,8.59014277 41.787936,8.63622203 41.7696677,8.67502545 C41.7513993,8.71382888 41.7108155,8.73708214 41.6680851,8.73322917 L39.5591489,8.73322917 Z"
                  id="Shape"></path>
        </g>
    </g>
</svg>