<svg viewBox="0 -1 31 34" version="1.1" xmlns="http://www.w3.org/2000/svg" xmlns:xlink="http://www.w3.org/1999/xlink">
    <g id="Group" stroke="none" stroke-width="1" fill="none" fill-rule="evenodd">
        <polygon id="Shape" fill="#D0011B" fill-rule="nonzero"
                 points="7.15384615 11.7857143 7.15384615 14.1428571 11.9230769 14.1428571 11.9230769 16.5 7.15384615 16.5 7.15384615 23.5714286 14.3076923 23.5714286 14.3076923 21.2142857 9.53846154 21.2142857 9.53846154 18.8571429 14.3076923 18.8571429 14.3076923 11.7857143"></polygon>
        <polygon id="Shape" fill="#D0011B" fill-rule="nonzero"
                 points="22.6538462 16.5 22.6538462 11.7857143 20.2692308 11.7857143 20.2692308 16.5 19.0769231 16.5 19.0769231 11.7857143 16.6923077 11.7857143 16.6923077 18.8571429 19.0769231 18.8571429 20.2692308 18.8571429 20.2692308 23.5714286 22.6538462 23.5714286 22.6538462 18.8571429 25.0384615 18.8571429 25.0384615 16.5"></polygon>
        <path d="M29.7087308,11.5488214 L27.5244231,12.4928571 C28.2481538,14.1298929 28.6153846,15.8741786 28.6153846,17.6785714 C28.6153846,24.8266071 22.7313462,30.6428571 15.5,30.6428571 C8.26865385,30.6428571 2.38461538,24.8266071 2.38461538,17.6785714 C2.38461538,10.5305357 8.26865385,4.71428571 15.5,4.71428571 L15.5,7.07142857 L21.4615385,3.53571429 L15.5,-5.68434189e-14 L15.5,2.35714286 C6.95353846,2.35714286 0,9.23057143 0,17.6785714 C0,26.1265714 6.95353846,33 15.5,33 C24.0476538,33 31,26.1265714 31,17.6785714 C31,15.5453571 30.566,13.4828571 29.7087308,11.5488214 Z"
              id="Shape" fill="#D0011B" fill-rule="nonzero"></path>
    </g>
</svg>