<?xml version="1.0" encoding="UTF-8"?>
<svg width="52px" height="52px" viewBox="0 0 52 52" version="1.1" xmlns="http://www.w3.org/2000/svg" xmlns:xlink="http://www.w3.org/1999/xlink">
    <!-- Generator: Sketch 42 (36781) - http://www.bohemiancoding.com/sketch -->
    <title>sprite-delivery-1 </title>
    <desc>Created with Sketch.</desc>
    <defs></defs>
    <g id="Symbols" stroke="none" stroke-width="1" fill="none" fill-rule="evenodd">
        <g id="sprite-delivery-1-" fill-rule="nonzero" fill="#FFFFFF">
            <path d="M32.3625054,41.3182951 L32.3625054,41.3182951 L27.5294776,37.6005814 C25.989282,36.4321572 23.811764,36.5914877 22.4308989,37.9192426 L20.4127115,39.93743 C18.8725158,39.5656587 17.4385406,38.8752261 16.2170061,37.8661324 L16.0576755,37.7068018 C15.5796837,37.3350305 15.1548022,36.8570387 14.7299206,36.379047 L14.57059,36.2197164 C13.5614963,34.9981819 12.8179536,33.5642066 12.4992924,32.024011 L14.5174798,30.0058236 C15.8983449,28.6249585 16.0576755,26.4474405 14.836141,24.9072448 L11.1184273,20.0742171 C9.95000306,18.5871316 7.98492584,18.0560297 6.2322894,18.7995724 L5.70118745,19.0651234 C2.62079614,20.4459884 0.54949853,23.57949 0.496388335,26.9785424 C0.390167945,32.7675537 2.35524516,38.3972344 6.07295882,42.8053806 L6.33850979,43.0709315 C7.24138311,44.1862456 8.30358701,45.1953393 9.36579091,46.0982127 L9.63134189,46.3637636 C13.9332677,49.9752569 19.3505076,51.9403341 24.9801883,51.9403341 L25.45818,51.9403341 C28.8572325,51.8872239 31.9376238,49.8159263 33.3184889,46.6824248 L33.5840399,46.1513229 C34.3806928,44.4517966 33.8495908,42.4336092 32.3625054,41.3182951 Z M31.1940811,45.089119 L30.9285301,45.6202209 C29.9725466,47.7977389 27.7950286,49.2317142 25.4050698,49.2848244 C20.2533809,49.3910448 15.2610226,47.6384083 11.3308681,44.292466 L11.0653172,44.0269151 C10.1093336,43.1771519 9.15335013,42.2742786 8.3566972,41.3182951 L8.14425642,41.1058543 C4.85142433,37.1756999 3.0456777,32.1833416 3.20500828,27.0316526 C3.25811848,24.6416939 4.69209375,22.4641759 6.86961174,21.5081923 L7.40071369,21.2426414 C7.56004428,21.136421 7.77248506,21.136421 7.98492584,21.136421 C8.4098074,21.136421 8.83468896,21.3488618 9.10023994,21.7206331 L12.8179536,26.5536609 C13.189725,27.0316526 13.1366148,27.7220852 12.7117332,28.1469667 L10.215554,30.6431459 C9.89689286,30.9618071 9.79067247,31.3866886 9.84378267,31.8115702 C10.215554,34.0421984 11.1715375,36.1666062 12.658623,37.9192426 L12.8179536,38.0785732 C13.2959453,38.6627853 13.8801575,39.1938873 14.4643696,39.7249893 L14.6237002,39.8843198 C16.3763367,41.3714053 18.5007445,42.3273888 20.7313727,42.6991602 C21.1562542,42.7522704 21.5811358,42.64605 21.8997969,42.3273888 L24.3959761,39.8312096 C24.8208577,39.4063281 25.5112902,39.3532179 25.989282,39.7249893 L30.8223097,43.4427029 C31.3003015,43.8144743 31.4596321,44.5049068 31.1940811,45.089119 Z M47.1802498,5.30958285 C40.700806,-1.16986095 30.1849874,-1.16986095 23.7055436,5.30958285 C18.4476343,10.5674922 17.3323202,18.5871316 20.8907032,25.0134652 L19.6160586,29.4747216 C19.3505076,30.4307051 19.6160586,31.492909 20.3064911,32.1833416 C20.9969236,32.8737741 22.0591275,33.1393251 23.015111,32.8737741 L27.4763674,31.5991294 C29.9725466,32.9799945 32.7342767,33.670427 35.4428967,33.670427 C39.7448225,33.670427 43.9936381,32.024011 47.1802498,28.7842891 C53.6065834,22.3048453 53.6065834,11.7890266 47.1802498,5.30958285 Z M45.2682828,26.9254322 C40.7539162,31.4397988 33.7433704,32.2895619 28.2730204,29.04984 C28.0605796,28.9436197 27.8481388,28.8373993 27.5825878,28.8373993 C27.4763674,28.8373993 27.3170368,28.8373993 27.2108165,28.8905095 L22.2184581,30.3244847 L22.1122377,30.3244847 C22.0591275,30.2713745 22.0591275,30.2713745 22.1122377,30.2182643 L23.546213,25.225906 C23.6524334,24.8541346 23.5993232,24.4823633 23.3868824,24.1637021 C20.0940503,18.693352 20.9969236,11.6828063 25.5112902,7.16843968 C30.9816403,1.80430997 39.8510429,1.80430997 45.2682828,7.22154987 C50.6855227,12.6387898 50.6855227,21.5081923 45.2682828,26.9254322 Z M36.7706516,17.046936 C36.7706516,17.7904787 36.1864394,18.3746908 35.4428967,18.3746908 C34.699354,18.3746908 34.1151418,17.7904787 34.1151418,17.046936 C34.1151418,16.3033932 34.699354,15.7191811 35.4428967,15.7191811 L35.4428967,15.7191811 C36.1864394,15.7191811 36.7706516,16.3565034 36.7706516,17.046936 Z M31.6189626,17.046936 C31.6189626,17.7904787 31.0347505,18.3746908 30.2912078,18.3746908 C29.547665,18.3746908 28.9634529,17.7904787 28.9634529,17.046936 C28.9634529,16.3033932 29.547665,15.7191811 30.2912078,15.7191811 L30.2912078,15.7191811 C31.0347505,15.7191811 31.6189626,16.3565034 31.6189626,17.046936 Z M41.8692303,17.046936 C41.8692303,17.7904787 41.2850181,18.3746908 40.5414754,18.3746908 C39.7979327,18.3746908 39.2137205,17.7904787 39.2137205,17.046936 C39.2137205,16.3033932 39.7979327,15.7191811 40.5414754,15.7191811 L40.5414754,15.7191811 C41.2850181,15.7191811 41.8692303,16.3565034 41.8692303,17.046936 Z" id="Shape"></path>
        </g>
    </g>
</svg>