<svg xmlns="http://www.w3.org/2000/svg" viewBox="0 0 104 39">
    <defs>
        <style>.cls-1{fill:#fff;}.cls-2{fill:#d0011b;}</style>
    </defs>

    <path class="cls-1"
          d="M4.16,2.94l3.55,9,3.57-9h4.16L9.23,17.64h-3L0,2.94ZM28.06,6.7A4.72,4.72,0,0,0,26.81,6a3.32,3.32,0,0,0-1.21-.24,2,2,0,0,0-1.21.35,1.09,1.09,0,0,0-.47.92.91.91,0,0,0,.23.64,2,2,0,0,0,.61.44,5.26,5.26,0,0,0,.86.32l.95.29a5.9,5.9,0,0,1,2.74,1.67,4.11,4.11,0,0,1,.87,2.72,5.29,5.29,0,0,1-.38,2,4.27,4.27,0,0,1-1.11,1.57,5.13,5.13,0,0,1-1.8,1,7.48,7.48,0,0,1-2.41.36,8.87,8.87,0,0,1-5.17-1.66L21,13.31a6.65,6.65,0,0,0,1.7,1.13,4.08,4.08,0,0,0,1.66.37,2,2,0,0,0,1.4-.43A1.33,1.33,0,0,0,26,12.84a1.25,1.25,0,0,0-.39-.45,3.13,3.13,0,0,0-.71-.38l-1.06-.39q-.74-.23-1.45-.52a4.58,4.58,0,0,1-1.27-.75,3.49,3.49,0,0,1-.9-1.18,4.17,4.17,0,0,1-.34-1.8,5.21,5.21,0,0,1,.36-2,4.4,4.4,0,0,1,1-1.52,4.52,4.52,0,0,1,1.6-1A6.05,6.05,0,0,1,25,2.53a9.27,9.27,0,0,1,2.28.3,10.07,10.07,0,0,1,2.28.89Zm16.43-.53H39.94V8.63h4.29v3.24H39.94v2.53h4.55v3.24H36.12V2.94h8.37ZM5.37,30.12H6.63q2.11,0,2.11-1.83T6.63,26.45H5.37Zm0,8H1.54V23.37H7.63a5.21,5.21,0,0,1,3.8,1.29,4.84,4.84,0,0,1,1.32,3.63,4.84,4.84,0,0,1-1.32,3.63,5.21,5.21,0,0,1-3.8,1.29H5.37Zm16.27-7.35A3.92,3.92,0,0,0,22,32.34a4,4,0,0,0,2.21,2.14,4.34,4.34,0,0,0,3.18,0,4.17,4.17,0,0,0,1.33-.85,4,4,0,0,0,.91-1.29,4.11,4.11,0,0,0,0-3.24,4,4,0,0,0-.91-1.29A4.17,4.17,0,0,0,27.37,27a4.34,4.34,0,0,0-3.18,0A4,4,0,0,0,22,29.1,3.92,3.92,0,0,0,21.64,30.72Zm-4,0a7.58,7.58,0,0,1,4.85-7.17,9.36,9.36,0,0,1,6.57,0,7.75,7.75,0,0,1,2.59,1.65,7.54,7.54,0,0,1,1.69,2.47,8,8,0,0,1,0,6.1,7.54,7.54,0,0,1-1.69,2.47,7.75,7.75,0,0,1-2.59,1.65,9.36,9.36,0,0,1-6.57,0,7.6,7.6,0,0,1-4.85-7.17Zm26.07-.78h.72a2.79,2.79,0,0,0,1.74-.47,1.8,1.8,0,0,0,0-2.69,2.79,2.79,0,0,0-1.74-.47h-.72Zm8.41,8.13H47.36l-3.65-5.66v5.66H39.88V23.37h6a5.85,5.85,0,0,1,2.15.36,4,4,0,0,1,2.41,2.43,5,5,0,0,1,.3,1.75,4.31,4.31,0,0,1-.81,2.72A4.08,4.08,0,0,1,47.49,32Zm8.19-7.35a3.92,3.92,0,0,0,.33,1.62,4,4,0,0,0,2.21,2.14,4.33,4.33,0,0,0,3.18,0,4.17,4.17,0,0,0,1.33-.85,4,4,0,0,0,.91-1.29,4.11,4.11,0,0,0,0-3.24,4,4,0,0,0-.91-1.29A4.17,4.17,0,0,0,66,27a4.33,4.33,0,0,0-3.18,0,4,4,0,0,0-2.21,2.14A3.92,3.92,0,0,0,60.31,30.72Zm-4,0a7.58,7.58,0,0,1,4.85-7.17,9.36,9.36,0,0,1,6.57,0,7.75,7.75,0,0,1,2.59,1.65A7.54,7.54,0,0,1,72,27.67a8,8,0,0,1,0,6.1,7.54,7.54,0,0,1-1.69,2.47,7.75,7.75,0,0,1-2.59,1.65,9.36,9.36,0,0,1-6.57,0,7.6,7.6,0,0,1-4.85-7.17Zm29.41-.88h7.59a21.06,21.06,0,0,1-.1,2.13,7.53,7.53,0,0,1-.39,1.77,7.08,7.08,0,0,1-1.11,2,6.5,6.5,0,0,1-1.65,1.48,7.75,7.75,0,0,1-2.08.91,8.92,8.92,0,0,1-2.38.31,8.37,8.37,0,0,1-3.13-.57A7.07,7.07,0,0,1,80,36.33a7.2,7.2,0,0,1-1.58-2.46,9.17,9.17,0,0,1,0-6.32A6.91,6.91,0,0,1,80,25.1a7.18,7.18,0,0,1,2.47-1.58A8.76,8.76,0,0,1,85.72,23a8,8,0,0,1,4,1A6.89,6.89,0,0,1,92.51,27l-3.63,1.5a3.69,3.69,0,0,0-1.32-1.74,3.31,3.31,0,0,0-1.84-.53,3.7,3.7,0,0,0-1.56.32,3.38,3.38,0,0,0-1.2.92,4.4,4.4,0,0,0-.78,1.43,5.83,5.83,0,0,0-.28,1.87,5.92,5.92,0,0,0,.24,1.74,3.92,3.92,0,0,0,.73,1.38,3.3,3.3,0,0,0,1.21.91,4.09,4.09,0,0,0,1.68.32A4.66,4.66,0,0,0,86.85,35a2.88,2.88,0,0,0,.95-.41,2.33,2.33,0,0,0,.69-.73,2.92,2.92,0,0,0,.37-1.09H85.72Zm17.37-6.47v14.7H99.26V23.37Z"/>
    <path class="cls-1"
          d="M51.11,17.84v-6l.05-.2c.15-.55,1.81-5.41,13.13-5.41,3,0,4.94-1.52,6.78-3C72.71,1.92,74.41.57,76.72.57H89.88l5.75,3.92h8V14.87l-.68.64c-.28.22-2.77,2.34-5.59,2.34v-3a3.89,3.89,0,0,0,3.11-1.53V7.59H94.64L88.89,3.67H76.72c-1.19,0-2.28.87-3.66,2-2,1.64-4.6,3.68-8.77,3.68-7.78,0-9.71,2.48-10,3v2.52H55v3Z"/>
    <path class="cls-1"
          d="M60.48,20.19a4.34,4.34,0,1,1,4.44-4.34A4.4,4.4,0,0,1,60.48,20.19Zm0-5.6a1.27,1.27,0,1,0,1.3,1.27A1.28,1.28,0,0,0,60.48,14.59Z"/>
    <path class="cls-1"
          d="M91.88,20.19a4.34,4.34,0,1,1,4.44-4.34A4.39,4.39,0,0,1,91.88,20.19Zm0-5.6a1.27,1.27,0,1,0,1.3,1.27A1.28,1.28,0,0,0,91.88,14.59Z"/>
    <rect class="cls-2" x="65.68" y="14.85" width="20.67" height="2.99"/>

</svg>