<svg viewBox="0 0 20 22" version="1.1" xmlns="http://www.w3.org/2000/svg" xmlns:xlink="http://www.w3.org/1999/xlink">
    <path d="M19.2073462,7.25167434 C17.8960615,2.22878716 12.7620485,-0.749384875 7.73916131,0.561899829 C2.71627414,1.8954097 -0.261897895,7.02942269 1.04938681,12.0300847 C1.67169141,14.4081773 3.16077743,16.3195414 5.07214158,17.5419255 L2.60514832,21.3202034 L12.5175717,18.7198592 C17.5182337,17.4085745 20.5186309,12.2745615 19.2073462,7.25167434 Z M11.206287,13.8969985 C7.31688319,11.9856344 6.31675079,8.56295904 6.16117464,7.29612466 C6.00559849,6.05151545 8.1836646,4.94025723 8.1836646,4.94025723 L9.5616248,7.25167434 C9.5616248,7.25167434 8.09476395,8.02955509 8.29479043,8.47405838 C9.36159832,10.7632503 10.7840088,11.5855814 10.7840088,11.5855814 C11.2285121,11.7633827 12.2508697,10.6298993 12.2508697,10.6298993 L14.2066842,12.474588 C14.2066842,12.474588 12.5842472,14.5637534 11.206287,13.8969985 Z"
          stroke="none" fill="#FFFFFF" fill-rule="nonzero"></path>
</svg>