<svg viewBox="0 0 31 31" xmlns="http://www.w3.org/2000/svg"><g fill="#af443d" stroke="#af443d" stroke-width=".3"><path d="m29.86 13.45h-.76v-5.16a2.13 2.13 0 0 0 -2.1-2.17h-.59v-3.45a2.08 2.08 0 0 0 -2-2.17h-.08l-21.85 5.61a2.16 2.16 0 0 0 -2 2.18v20.06a2.13 2.13 0 0 0 2.09 2.17h24.43a2.15 2.15 0 0 0 2.17-2.13v-5.39h.7a.59.59 0 0 0 .64-.54v-8.36a.65.65 0 0 0 -.65-.65zm-5.3-11.74a1 1 0 0 1 .64 1v3.4h-17.62l17-4.4zm3.33 26.64a.94.94 0 0 1 -.88 1h-24.4a.94.94 0 0 1 -.9-1v-20a.94.94 0 0 1 .88-1h24.33a.94.94 0 0 1 .9 1v5.12h-6.32a4.79 4.79 0 1 0 0 9.58h6.39zm1.33-6.51h-7.72a3.51 3.51 0 0 1 0-7h7.72z"/><path d="m20.14 18.35a1 1 0 0 0 .95.95h.91a.95.95 0 1 0 0-1.9h-.9a.91.91 0 0 0 -1 .81z"/></g></svg>