<?xml version="1.0" encoding="UTF-8"?>
<svg width="32px" height="33px" viewBox="0 0 32 33" version="1.1" xmlns="http://www.w3.org/2000/svg" xmlns:xlink="http://www.w3.org/1999/xlink">
    <!-- Generator: Sketch 42 (36781) - http://www.bohemiancoding.com/sketch -->
    <title>Shape</title>
    <desc>Created with Sketch.</desc>
    <defs></defs>
    <g id="Symbols" stroke="none" stroke-width="1" fill="none" fill-rule="evenodd">
        <g id="sprite-zoom" fill-rule="nonzero" fill="#FFFFFF">
            <path d="M13.9622776,0 C6.26473899,0.001400369 0.00280435812,6.29305281 0,14.0252405 C0,21.7518008 6.26473899,28.0393709 13.9594732,28.0393709 C17.1667797,28.0393709 20.1177679,26.9373459 22.4777338,25.1058383 L29.6066547,32.2612749 C29.8797537,32.5355159 30.2383022,32.6733396 30.5968356,32.6733396 C30.9553842,32.6733396 31.3139327,32.5355159 31.5870469,32.2612749 C32.1346698,31.7113881 32.1346698,30.8210182 31.5870469,30.2725363 L24.5127731,23.172087 C26.631837,20.7137636 27.9245552,17.5206148 27.9245552,14.0224276 C27.9245552,6.29164636 21.6570118,0 13.9622776,0 Z M13.9622776,2.81272486 C20.1135841,2.81272486 25.1206063,7.84019419 25.1234107,14.0197547 C25.1234107,20.1979103 20.1149635,25.2239732 13.9594732,25.2239732 C7.80677215,25.2239732 2.80394884,20.2005832 2.80112932,14.0252405 C2.80112932,7.84427352 7.8095765,2.81413132 13.9622776,2.81272486 L13.9622776,2.81272486 Z M13.9622776,6.91382269 C13.1877594,6.91382269 12.5617054,7.54387306 12.5617054,8.32018741 L12.5617054,12.4513795 L8.44684794,12.4513795 C7.67231454,12.4513795 7.0462757,13.0814298 7.0462757,13.8577411 C7.0462757,14.6340555 7.67231454,15.2641059 8.44684794,15.2641059 L12.5617054,15.2641059 L12.5617054,19.3952994 C12.5617054,20.1716107 13.1877594,20.8016626 13.9622776,20.8016626 C14.7367807,20.8016626 15.3628498,20.1716107 15.3628498,19.3952994 L15.3628498,15.2641059 L19.4763126,15.2641059 C20.2508309,15.2641059 20.8768849,14.6340555 20.8768849,13.8577411 C20.8768849,13.0814298 20.2508309,12.4513795 19.4763126,12.4513795 L15.3628498,12.4513795 L15.3628498,8.32018741 C15.3628498,7.54387306 14.7367807,6.91382269 13.9622776,6.91382269 L13.9622776,6.91382269 Z" id="Shape"></path>
        </g>
    </g>
</svg>