<?xml version="1.0" encoding="UTF-8"?>
<svg width="21px" height="21px" viewBox="0 0 21 21" version="1.1" xmlns="http://www.w3.org/2000/svg" xmlns:xlink="http://www.w3.org/1999/xlink">
    <!-- Generator: Sketch 42 (36781) - http://www.bohemiancoding.com/sketch -->
    <title>sprite-close</title>
    <desc>Created with Sketch.</desc>
    <defs></defs>
    <g id="Symbols" stroke="none" stroke-width="1" fill="none" fill-rule="evenodd" opacity="0.200000003">
        <g id="sprite-close" fill="#4A4A4A">
            <path d="M10.5,7.12073329 L4.07940952,0.698520222 C3.1479417,-0.233182996 1.6355255,-0.233032181 0.702602528,0.700126553 C-0.236824607,1.6397911 -0.231039437,3.14551535 0.700996603,4.07778693 L7.12158708,10.5 L0.700996603,16.9222131 C-0.231039437,17.8544847 -0.236824607,19.3602089 0.702602528,20.2998734 C1.6355255,21.2330322 3.1479417,21.233183 4.07940952,20.3014798 L10.5,13.8792667 L16.9205905,20.3014798 C17.8520583,21.233183 19.3644745,21.2330322 20.2973975,20.2998734 C21.2368246,19.3602089 21.2310394,17.8544847 20.2990034,16.9222131 L13.8784129,10.5 L20.2990034,4.07778693 C21.2310394,3.14551535 21.2368246,1.6397911 20.2973975,0.700126553 C19.3644745,-0.233032181 17.8520583,-0.233182996 16.9205905,0.698520222 L10.5,7.12073329 L10.5,7.12073329 Z" id="Combined-Shape"></path>
        </g>
    </g>
</svg>