<?xml version="1.0" encoding="UTF-8"?>
<svg width="19px" height="21px" viewBox="0 0 19 21" version="1.1" xmlns="http://www.w3.org/2000/svg" xmlns:xlink="http://www.w3.org/1999/xlink">
    <!-- Generator: Sketch 42 (36781) - http://www.bohemiancoding.com/sketch -->
    <title>Shape</title>
    <desc>Created with Sketch.</desc>
    <defs></defs>
    <g id="Symbols" stroke="none" stroke-width="1" fill="none" fill-rule="evenodd">
        <g id="sprite-phone" fill-rule="nonzero" fill="#FFFFFF">
            <path d="M18.6885468,6.97653784 C17.361541,1.96974092 12.165976,-0.998890878 7.08286914,0.308193273 C1.99976228,1.63743139 -1.01411524,6.75499815 0.31289053,11.7396411 C0.942655983,14.1101157 2.44959474,16.0153571 4.38387435,17.2338253 L1.88730416,21 L11.9185682,18.4079857 C16.9791834,17.1009015 20.0155525,11.9833348 18.6885468,6.97653784 Z M10.5915624,13.6005745 C6.6555283,11.6953332 5.64340525,8.28362199 5.48596389,7.02084578 C5.32852253,5.78022353 7.53270161,4.6725251 7.53270161,4.6725251 L8.92718225,6.97653784 C8.92718225,6.97653784 7.44273512,7.75192674 7.64515973,8.19500612 C8.72475765,10.4768649 10.1642215,11.2965617 10.1642215,11.2965617 C10.614054,11.4737935 11.6486687,10.3439411 11.6486687,10.3439411 L13.6279315,12.1827205 C13.6279315,12.1827205 11.986043,14.2651935 10.5915624,13.6005745 Z" id="Shape"></path>
        </g>
    </g>
</svg>