<?xml version="1.0" encoding="UTF-8"?>
<svg width="33px" height="50px" viewBox="0 0 33 50" version="1.1" xmlns="http://www.w3.org/2000/svg" xmlns:xlink="http://www.w3.org/1999/xlink">
    <!-- Generator: Sketch 42 (36781) - http://www.bohemiancoding.com/sketch -->
    <title>sprite-delivery-3</title>
    <desc>Created with Sketch.</desc>
    <defs></defs>
    <g id="Symbols" stroke="none" stroke-width="1" fill="none" fill-rule="evenodd">
        <g id="sprite-delivery-3" fill-rule="nonzero" fill="#FFFFFF">
            <path d="M16.5,1 C14.0814267,1 12.1,2.98143 12.1,5.4 L12.1,6.5 L8.3875,6.5 C7.1132963,6.5 6.05,7.563315 6.05,8.8375 L6.05,9.8 L1.1,9.8 C0.50116605,9.8 0,10.404285 0,10.9 L0,48.300011 C5.775e-05,48.875916 0.52405705,49.399956 1.1,49.400011 L31.9,49.400011 C32.4759429,49.399956 32.9999422,48.875916 33,48.300011 L33,10.9 C32.9999422,10.32404 32.4759429,9.800055 31.9,9.8 L26.95,9.8 L26.95,8.8375 C26.95,7.563315 25.8867037,6.5 24.6125,6.5 L20.9,6.5 L20.9,5.4 C20.9,2.98143 18.9185733,1 16.5,1 L16.5,1 Z M16.5,3.2 C17.7378267,3.2 18.7,4.16217 18.7,5.4 L18.7,7.6 C18.7000577,8.17596 19.2240571,8.699945 19.8,8.7 L24.6125,8.7 C24.713216,8.7 24.75,8.73685 24.75,8.8375 L24.75,12.9625 C24.75,13.063205 24.713216,13.1 24.6125,13.1 L8.3875,13.1 C8.286784,13.1 8.25,13.06315 8.25,12.9625 L8.25,8.8375 C8.25,8.736795 8.286784,8.7 8.3875,8.7 L13.2,8.7 C13.7759429,8.699945 14.2999423,8.17596 14.3,7.6 L14.3,5.4 C14.3,4.16217 15.2621733,3.2 16.5,3.2 Z M2.2,12 L6.05,12 L6.05,12.9625 C6.05,14.236685 7.1132963,15.3 8.3875,15.3 L24.6125,15.3 C25.8867037,15.3 26.95,14.236685 26.95,12.9625 L26.95,12 L30.8,12 L30.8,47.200011 L2.2,47.200011 L2.2,12 Z M5.5,20.8 C5.518733,21.376345 6.02333545,21.9 6.6,21.9 L26.4,21.9 C26.9811437,21.90825 27.5156662,21.381185 27.5156662,20.8 C27.5156662,20.218815 26.9811437,19.69175 26.4,19.7 L6.6,19.7 C5.96731685,19.7 5.4834274,20.29015 5.5,20.8 Z M5.5,27.400011 C5.518733,27.976356 6.02333545,28.500011 6.6,28.500011 L26.4,28.500011 C26.9811437,28.508261 27.5156662,27.981196 27.5156662,27.400011 C27.5156662,26.818826 26.9811437,26.291761 26.4,26.300011 L6.6,26.300011 C5.96731685,26.300011 5.4834274,26.890161 5.5,27.400011 Z M25.4890625,32.831261 L20.796875,39.860921 L18.9921875,37.695296 C18.7967576,37.430911 18.4774276,37.296436 18.15,37.300011 C17.371074,37.308261 17.05,37.884111 17.05,38.400011 C17.05,38.658951 17.1292066,38.915636 17.3078125,39.104671 L20.0578125,42.404671 C20.2667558,42.650081 20.5796827,42.806226 20.9,42.800011 C21.2533381,42.792861 21.6137834,42.597446 21.8109375,42.301546 L27.3109375,34.051546 C27.4311845,33.878736 27.503553,33.670561 27.502382,33.460186 C27.498367,32.738146 26.9706107,32.350011 26.4,32.350011 C26.0006329,32.350011 25.6577942,32.578481 25.4890625,32.831261 Z M5.5,34.000011 C5.517699,34.576411 6.02333545,35.100011 6.6,35.100011 L15.4,35.100011 C15.9811437,35.108261 16.5156662,34.581196 16.5156662,34.000011 C16.5156662,33.418771 15.9811437,32.891761 15.4,32.900011 L6.6,32.900011 C5.96240645,32.900011 5.4838476,33.474046 5.5,34.000011 Z" id="Shape"></path>
        </g>
    </g>
</svg>