<?xml version="1.0" encoding="UTF-8"?>
<svg width="83px" height="38px" viewBox="0 0 83 38" version="1.1" xmlns="http://www.w3.org/2000/svg" xmlns:xlink="http://www.w3.org/1999/xlink">
    <!-- Generator: Sketch 42 (36781) - http://www.bohemiancoding.com/sketch -->
    <title>car-x1</title>
    <desc>Created with Sketch.</desc>
    <defs></defs>
    <g id="Symbols" stroke="none" stroke-width="1" fill="none" fill-rule="evenodd">
        <g id="car-x1">
            <g id="Group-16">
                <path d="M0,33.6697248 L0,24.0276362 L0.0854373875,23.7097761 C0.325854222,22.8227477 2.94262258,15.0451075 20.7602917,15.0451075 C25.5616742,15.0451075 28.546022,12.618444 31.4320175,10.2712456 C34.0140148,8.17138205 36.6844299,6 40.3304208,6 L61.0450134,6 L70.0914419,12.275751 L82.6904762,12.275751 L82.6904762,28.9157291 L81.6235023,29.9449541 C81.1764462,30.3035401 77.2602348,33.6922653 72.8224579,33.6922653 L72.8224579,28.8807339 C75.7551459,28.8807339 76.8221198,27.2844037 77.7231862,26.4334401 L77.7231862,17.2423157 L68.5376736,17.2423157 L59.4912451,10.9665646 L40.3304208,10.9665646 C38.4498048,10.9665646 36.7360897,12.3601826 34.5663775,14.1243064 C31.3406194,16.7476458 27.3270491,20.0116721 20.7602917,20.0116721 C8.51294156,20.0116721 5.47792738,23.9779706 4.96728997,24.8411595 L4.96728997,28.8807339 L6.17632835,28.8807339 L6.17632835,33.6697248 L0,33.6697248 Z" id="Shape" fill="#000000" fill-rule="nonzero" opacity="0.400000006"></path>
                <path d="M14.7628793,37.4348068 C10.9058449,37.4348068 7.76711262,34.3197537 7.76711262,30.4906088 C7.76711262,26.6604804 10.9048542,23.5454273 14.7628793,23.5454273 C18.6209045,23.5454273 21.758646,26.661464 21.758646,30.4906088 C21.758646,34.3197537 18.6209045,37.4348068 14.7628793,37.4348068 Z M14.7628793,28.4643981 C13.6373743,28.4643981 12.7209199,29.3742257 12.7209199,30.4915924 C12.7209199,31.6089591 13.6363835,32.5178032 14.7628793,32.5178032 C15.8893751,32.5178032 16.8048387,31.6089591 16.8048387,30.4915924 C16.8048387,29.3742257 15.8893751,28.4643981 14.7628793,28.4643981 Z" id="Shape" fill="#000000" fill-rule="nonzero" opacity="0.400000006"></path>
                <path d="M64.2028672,37.4348068 C60.3458329,37.4348068 57.2080913,34.3197537 57.2080913,30.4906088 C57.2080913,26.6604804 60.3458329,23.5454273 64.2028672,23.5454273 C68.0608924,23.5454273 71.1996247,26.6604804 71.1996247,30.4906088 C71.1986339,34.3197537 68.0599016,37.4348068 64.2028672,37.4348068 Z M64.2028672,28.4643981 C63.0773622,28.4643981 62.1618986,29.3742257 62.1618986,30.4915924 C62.1618986,31.6089591 63.0773622,32.5178032 64.2028672,32.5178032 C65.329363,32.5178032 66.2458174,31.6089591 66.2458174,30.4915924 C66.2458174,29.3742257 65.329363,28.4643981 64.2028672,28.4643981 Z" id="Shape" fill="#000000" fill-rule="nonzero" opacity="0.400000006"></path>
                <rect id="Rectangle-path" fill="#FFFFFF" fill-rule="nonzero" x="22.9399386" y="28.8807339" width="32.5427035" height="4.78899083"></rect>
                <path d="M34.84,12.032 L34.696,12.032 L31.888,17 L28.24,17 L31.888,10.928 L28.504,5.168 L32.128,5.168 L34.648,9.728 L34.888,9.728 L37.408,5.168 L41.032,5.168 L37.648,10.928 L41.296,17 L37.648,17 L34.84,12.032 Z M49.6,17 L45.952,17 L45.952,5.336 C45.952,4.63199648 45.9999995,4.03200248 46.096,3.536 L42.232,4.544 L41.8,2.096 L45.952,0.44 L49.6,0.44 L49.6,17 Z" id="x1" fill="#FFFFFF"></path>
            </g>
        </g>
    </g>
</svg>