<?xml version="1.0" encoding="UTF-8"?>
<svg width="48px" height="51px" viewBox="0 0 48 51" version="1.1" xmlns="http://www.w3.org/2000/svg" xmlns:xlink="http://www.w3.org/1999/xlink">
    <!-- Generator: Sketch 42 (36781) - http://www.bohemiancoding.com/sketch -->
    <title>Shape</title>
    <desc>Created with Sketch.</desc>
    <defs></defs>
    <g id="Symbols" stroke="none" stroke-width="1" fill="none" fill-rule="evenodd">
        <g id="sprite-mail" fill-rule="nonzero" fill="#D0011B">
            <path d="M15.7147826,16.2324283 C15.7147826,15.5120569 16.298759,14.9280805 17.0191304,14.9280805 L30.9808696,14.9280805 C31.701241,14.9280805 32.2852174,15.5120569 32.2852174,16.2324283 C32.2852174,16.9527997 31.701241,17.5367761 30.9808696,17.5367761 L17.0191304,17.5367761 C16.298759,17.5367761 15.7147826,16.9527997 15.7147826,16.2324283 Z M17.0191304,22.7854718 L30.9808696,22.7854718 C31.701241,22.7854718 32.2852174,22.2014953 32.2852174,21.4811239 C32.2852174,20.7607525 31.701241,20.1767761 30.9808696,20.1767761 L17.0191304,20.1767761 C16.298759,20.1767761 15.7147826,20.7607525 15.7147826,21.4811239 C15.7147826,22.2014953 16.298759,22.7854718 17.0191304,22.7854718 L17.0191304,22.7854718 Z M27.8765217,26.735037 C27.8765217,26.0146656 27.2925453,25.4306891 26.5721739,25.4306891 L17.0191304,25.4306891 C16.298759,25.4306891 15.7147826,26.0146656 15.7147826,26.735037 C15.7147826,27.4554084 16.298759,28.0393848 17.0191304,28.0393848 L26.5773913,28.0393848 C27.2977627,28.0393848 27.8817391,27.4554084 27.8817391,26.735037 L27.8765217,26.735037 Z M23.1547826,0.648080451 L17.9373913,5.07242828 C17.3870275,5.53778821 17.3181183,6.36119495 17.7834783,6.91155871 C18.2488382,7.46192247 19.0722449,7.53083169 19.6226087,7.06547176 L24,3.36112393 L28.3930435,7.07068915 C28.7490664,7.37172425 29.2386455,7.45995619 29.677361,7.30214884 C30.1160765,7.14434149 30.4372771,6.76446954 30.5199697,6.30562709 C30.6026623,5.84678463 30.4342838,5.37868076 30.0782609,5.07764567 L24.8608696,0.653297843 C24.370589,0.23430645 23.6477008,0.236523898 23.16,0.658515234 L23.1547826,0.648080451 Z M47.5356522,19.8219935 C47.8297022,20.069525 47.9996057,20.4341494 48,20.8185152 L48,45.4602544 C47.9971248,48.0005328 45.9385393,50.0591182 43.3982609,50.0619935 L4.60173913,50.0619935 C2.06146071,50.0591182 0.00287524716,48.0005328 0,45.4602544 L0,20.8185152 C0.000394333707,20.4341494 0.170297849,20.069525 0.464347826,19.8219935 L5.37913043,15.7002544 C5.9294942,15.2348945 6.75290092,15.3038037 7.21826084,15.8541674 C7.68362077,16.4045312 7.61471156,17.2279379 7.06434783,17.6932978 L3.41217391,20.7611239 L9.0573913,24.7524283 L9.0573913,12.2306891 C9.0573913,10.3836568 10.5547068,8.88634132 12.4017391,8.88634132 L35.613913,8.88634132 C37.4609453,8.88634132 38.9582609,10.3836568 38.9582609,12.2306891 L38.9582609,24.7524283 L44.6086957,20.7559065 L40.9878261,17.6985152 C40.4374623,17.2331553 40.3685531,16.4097486 40.833913,15.8593848 C41.299273,15.309021 42.1226797,15.2401118 42.6730435,15.7054718 L47.5356522,19.8219935 Z M11.6504348,26.6046022 L24,35.3385152 L36.3495652,26.6046022 L36.3495652,12.2515587 C36.3495652,11.8452692 36.0202025,11.5159065 35.613913,11.5159065 L12.386087,11.5159065 C11.9797975,11.5159065 11.6504348,11.8452692 11.6504348,12.2515587 L11.6504348,26.6046022 Z M45.3913043,23.4011239 L30.6521739,33.8359065 L41.2173913,41.9019935 C41.7936884,42.3342164 41.9104836,43.1517833 41.4782608,43.7280804 C41.046038,44.3043775 40.228471,44.4211728 39.6521739,43.98895 L28.4191304,35.4063413 L24.7669565,38.015037 C24.3152617,38.334973 23.7108252,38.334973 23.2591304,38.015037 L19.6069565,35.4063413 L8.37913043,43.98895 C7.8028333,44.4211728 6.98526638,44.3043775 6.55304355,43.7280804 C6.12082072,43.1517833 6.23761597,42.3342164 6.81391304,41.9019935 L17.3478261,33.8254718 L2.60869565,23.4011239 L2.60869565,45.4602544 C2.61156278,46.5597921 3.5022014,47.4504307 4.60173913,47.4532978 L43.3982609,47.4532978 C44.4977986,47.4504307 45.3884372,46.5597921 45.3913043,45.4602544 L45.3913043,23.4011239 Z" id="Shape"></path>
        </g>
    </g>
</svg>